<svg xmlns="http://www.w3.org/2000/svg" width="900" height="520" viewBox="0 0 900 520">
<rect width="100%" height="100%" fill="#fbfaf7"/>
<text x="90" y="30" font-family="Georgia,serif" font-size="22" fill="#172b2a">p01.kp | profit vs. NFC</text>
<line x1="92.000000" y1="442.000000" x2="866.000000" y2="442.000000" stroke="#d9ddd7"/>
<text x="80" y="446.000000" text-anchor="end" font-family="Arial,sans-serif" font-size="12" fill="#526260">0</text>
<line x1="92.000000" y1="364.000000" x2="866.000000" y2="364.000000" stroke="#d9ddd7"/>
<text x="80" y="368.000000" text-anchor="end" font-family="Arial,sans-serif" font-size="12" fill="#526260">67</text>
<line x1="92.000000" y1="286.000000" x2="866.000000" y2="286.000000" stroke="#d9ddd7"/>
<text x="80" y="290.000000" text-anchor="end" font-family="Arial,sans-serif" font-size="12" fill="#526260">133</text>
<line x1="92.000000" y1="208.000000" x2="866.000000" y2="208.000000" stroke="#d9ddd7"/>
<text x="80" y="212.000000" text-anchor="end" font-family="Arial,sans-serif" font-size="12" fill="#526260">200</text>
<line x1="92.000000" y1="130.000000" x2="866.000000" y2="130.000000" stroke="#d9ddd7"/>
<text x="80" y="134.000000" text-anchor="end" font-family="Arial,sans-serif" font-size="12" fill="#526260">267</text>
<line x1="92.000000" y1="52.000000" x2="866.000000" y2="52.000000" stroke="#d9ddd7"/>
<text x="80" y="56.000000" text-anchor="end" font-family="Arial,sans-serif" font-size="12" fill="#526260">334</text>
<line x1="92.000000" y1="52" x2="92.000000" y2="442.000000" stroke="#e5e8e2"/>
<text x="92.000000" y="464" text-anchor="middle" font-family="Arial,sans-serif" font-size="12" fill="#526260">10^0</text>
<line x1="316.431984" y1="52" x2="316.431984" y2="442.000000" stroke="#e5e8e2"/>
<text x="316.431984" y="464" text-anchor="middle" font-family="Arial,sans-serif" font-size="12" fill="#526260">10^1</text>
<line x1="540.863967" y1="52" x2="540.863967" y2="442.000000" stroke="#e5e8e2"/>
<text x="540.863967" y="464" text-anchor="middle" font-family="Arial,sans-serif" font-size="12" fill="#526260">10^2</text>
<line x1="765.295951" y1="52" x2="765.295951" y2="442.000000" stroke="#e5e8e2"/>
<text x="765.295951" y="464" text-anchor="middle" font-family="Arial,sans-serif" font-size="12" fill="#526260">10^3</text>
<line x1="92" y1="52" x2="92" y2="442" stroke="#172b2a" stroke-width="1.5"/>
<line x1="92" y1="442" x2="866" y2="442" stroke="#172b2a" stroke-width="1.5"/>
<text x="479.000000" y="502" text-anchor="middle" font-family="Arial,sans-serif" font-size="14" fill="#172b2a">NFC (Number of Function Calls, logarithmic scale)</text>
<text transform="translate(24 247.000000) rotate(-90)" text-anchor="middle" font-family="Arial,sans-serif" font-size="14" fill="#172b2a">Profit (best feasible)</text>
<polyline fill="none" stroke="#087f6b" stroke-width="2.5" stroke-linejoin="round" points="92.00,442.00 590.26,442.00 590.26,334.48 657.82,334.48 657.82,267.87 697.34,267.87 697.34,210.61 725.38,210.61 725.38,131.14 747.13,131.14 747.13,118.29 764.91,118.29 764.91,80.89 779.93,80.89 779.93,80.89 792.95,80.89 792.95,80.89 804.43,80.89 804.43,80.89 814.70,80.89 814.70,80.89 " data-series="DP" data-max-nfc="2810"/>
<polyline fill="none" stroke="#d05b37" stroke-width="2.5" stroke-linejoin="round" points="519.11,88.80 585.45,85.06 624.56,83.11 652.39,82.14 674.02,81.86 691.70,81.86 706.67,81.86 719.64,81.86 731.09,81.86 741.33,81.86 750.60,81.86 759.06,81.86 766.84,81.86 774.05,81.86 780.77,81.86 787.05,81.86 792.95,81.86 798.51,81.86 803.77,81.86 808.76,81.86 813.51,81.86 818.04,81.86 822.37,81.86 826.51,81.86 830.49,81.86 834.31,81.86 837.98,81.86 841.52,81.86 844.94,81.86 848.24,81.86 851.44,81.86 854.53,81.86 857.53,81.86 860.43,81.86 863.26,81.86 866.00,80.89 " data-series="GA mean" data-max-nfc="2810"/>
<rect x="610" y="58" width="14" height="4" fill="#087f6b"/><text x="632" y="64" font-family="Arial,sans-serif" font-size="12" fill="#172b2a">Exact DP</text><rect x="710" y="58" width="14" height="4" fill="#d05b37"/><text x="732" y="64" font-family="Arial,sans-serif" font-size="12" fill="#172b2a">GA mean over runs</text></svg>
